<svg xmlns="http://www.w3.org/2000/svg" version="1.1" xmlns:xlink="http://www.w3.org/1999/xlink" xmlns:svgjs="http://svgjs.dev/svgjs" width="1500" height="1682" viewBox="0 0 1500 1682"><g transform="matrix(1,0,0,1,-2.3361931736363886,0)"><svg viewBox="0 0 321 360" data-background-color="#c8c8c8" preserveAspectRatio="xMidYMid meet" height="1682" width="1500" xmlns="http://www.w3.org/2000/svg" xmlns:xlink="http://www.w3.org/1999/xlink"><g id="tight-bounds" transform="matrix(1,0,0,1,0.5000546608418972,0)"><svg viewBox="0 0 320 360" height="360" width="320"><g><svg></svg></g><g><svg viewBox="0 0 320 360" height="360" width="320"><g><path transform="translate(-119.39272,-98.31927) scale(5.58313,5.58313)" d="M36.7 23.5c0-0.2 0.1-0.4 0.3-0.4 0.2 0 0.4 0.1 0.4 0.4 0.1 0 0.3 0 0.4-0.1 0.4 0 0.8-0.1 1.1 0 0.3 0.1 0.5 0.1 0.8 0.2 0.3 0.1 0.5 0 0.7-0.1 0.4-0.1 0.7-0.3 1.1-0.4 0.2-0.1 0.3-0.1 0.5-0.1 0.2-0.1 0.4-0.1 0.7-0.2 0.5-0.1 1-0.2 1.4-0.4 0.4-0.2 0.8-0.2 1.2-0.3 0.2 0 0.3-0.1 0.5-0.2 0.1 0 0.1-0.1 0.2-0.2 0.2-0.1 0.3-0.2 0.5-0.1 0.1 0.1 0.3 0.1 0.4 0h0.1c0.6 0 1.2-0.1 1.9 0 0.1 0 0.2 0 0.2 0 0.3-0.2 0.7-0.2 1.1-0.2 0.1 0 0.3 0 0.4 0h0.1c0.4 0 0.8 0 1.1 0.1 0.3 0 0.5 0.1 0.8 0.2 0.3 0 0.5 0 0.8 0.1 0.2 0 0.4 0 0.6 0 0.1 0 0.2 0 0.2 0 0.4 0.1 0.8 0.1 1.2 0.1 0.3 0.1 0.6 0.2 1 0.2 0.1 0 0.2 0 0.3 0 0.1 0 0.2 0.1 0.3 0.1l0.1 0.1c0.4 0 0.7 0.2 1.1 0.2 0.1 0 0.3 0 0.4 0.1 0.3 0.2 0.7 0.3 1.1 0.3 0.2 0 0.3 0.1 0.4 0.2 0.3 0.1 0.5 0.2 0.8 0.3 0.2 0.1 0.4 0 0.6 0.1 0.3 0.1 0.7 0.2 1 0.5 0.2 0.2 0.4 0.2 0.7 0.4 0.1 0 0.2 0.1 0.3 0.2 0.3 0.2 0.6 0.4 0.9 0.5 0.1 0 0.2 0.1 0.3 0.1 0.3 0.2 0.6 0.5 1 0.7 0.2 0.1 0.3 0.2 0.5 0.3h0.1c0.3 0.3 0.7 0.5 1 0.8 0.3 0.3 0.5 0.5 0.9 0.7 0 0 0 0 0 0.1 0.1 0.2 0.2 0.3 0.4 0.4 0.2 0.1 0.3 0.2 0.4 0.3 0.3 0.2 0.6 0.4 0.8 0.6 0.1 0.1 0.2 0.2 0.4 0.4 0.1 0.1 0.2 0.2 0.3 0.2 0.4 0.1 0.6 0.4 0.9 0.7 0.2 0.2 0.5 0.5 0.7 0.7 0.1 0.1 0.2 0.3 0.3 0.5 0.2 0.6 0.5 1.2 0.8 1.7 0 0 0 0.1 0.1 0.2v0.1c0.2 0.2 0.3 0.5 0.5 0.7 0.1 0.1 0.1 0.2 0.2 0.3 0.2 0.3 0.3 0.7 0.5 1 0.3 0.5 0.5 1 0.7 1.5v0.1c0.1 0.2 0.2 0.4 0.3 0.7 0 0.2 0.2 0.4 0.3 0.7 0.1 0.5 0.4 1 0.5 1.6 0 0.1 0.1 0.2 0.1 0.4 0.1 0.3 0.2 0.6 0.3 0.9 0 0.1 0.1 0.2 0.2 0.3 0.2 0.2 0.2 0.4 0.2 0.6-0.1 0.4 0 0.8 0.1 1.2 0 0.1 0 0.2 0 0.4 0.1 0.4 0.2 0.9 0.2 1.3 0 0.1 0 0.3 0 0.4 0 0.3 0.1 0.6 0.3 0.9 0 0.1 0.1 0.1 0.1 0.1 0.1 0.1 0.2 0.3 0.3 0.4 0.1 0.1 0.1 0.1 0.2 0.2 0.2 0.2 0.3 0.4 0.3 0.7 0 0.1-0.1 0.3-0.1 0.4 0 0.1 0 0.3 0.1 0.4 0.1 0.1 0.1 0.2 0.1 0.3 0 0.1-0.1 0.2-0.2 0.2v0c-0.1 0.3-0.5 0.4-0.6 0.7-0.1 0.4-0.2 0.8-0.3 1.2-0.1 0.3-0.1 0.5-0.1 0.8 0 0.3-0.1 0.5-0.1 0.8-0.1 0.4-0.2 0.8-0.3 1.2 0 0.2-0.1 0.4-0.1 0.6 0.1 0.1 0.2 0.2 0.3 0.2 0.2 0.2 0.4 0.4 0.6 0.6 0.1 0.1 0.1 0.2 0 0.2-0.1 0.1-0.2 0.1-0.3 0.1-0.1-0.1-0.3-0.2-0.4-0.2-0.1-0.1-0.3-0.2-0.5-0.1 0 0.2-0.1 0.4-0.1 0.5-0.1 0.2-0.2 0.5-0.2 0.7-0.1 0.4-0.3 0.7-0.4 1.1-0.2 0.5-0.4 0.9-0.6 1.3-0.1 0.2-0.2 0.4-0.3 0.6v0c0 0.3-0.3 0.6-0.4 0.9-0.2 0.4-0.4 0.8-0.6 1.3-0.1 0.2-0.2 0.4-0.3 0.5-0.2 0.5-0.4 0.9-0.7 1.3-0.2 0.3-0.4 0.5-0.6 0.6-0.2 0.2-0.4 0.4-0.6 0.6-0.1 0.1-0.2 0.2-0.3 0.3-0.1 0.1-0.1 0.1-0.2 0.2-0.2 0.3-0.5 0.5-0.7 0.8-0.2 0.2-0.3 0.4-0.6 0.6-0.2 0.2-0.4 0.5-0.7 0.6-0.1 0.1-0.2 0.3-0.3 0.4-0.1 0.1-0.2 0.3-0.3 0.4 0 0.2 0.1 0.4 0.1 0.5 0 0.3-0.3 0.4-0.5 0.2-0.3-0.2-0.3-0.2-0.6 0-0.3 0.2-0.6 0.5-1 0.6-0.1 0-0.1 0.1-0.2 0.1-0.2 0.1-0.3 0.3-0.5 0.4-0.2 0.2-0.5 0.3-0.7 0.5-0.1 0.1-0.2 0.1-0.3 0.2-0.3 0.2-0.6 0.3-0.9 0.6-0.1 0.1-0.2 0.1-0.3 0.2 0 0.1 0 0.1 0 0.2 0 0.2-0.2 0.4-0.5 0.3-0.3-0.1-0.5 0-0.8 0-0.3 0.1-0.6 0.3-0.9 0.4-0.1 0-0.2 0.1-0.3 0.2-0.3 0.2-0.6 0.3-0.9 0.4-0.2 0-0.4 0.2-0.6 0.2-0.1 0-0.2 0.1-0.3 0.1h-0.1c-0.4 0.3-0.8 0.5-1.2 0.8-0.1 0-0.1 0.1-0.2 0.2-0.1 0.2-0.2 0.3-0.4 0.3-0.5 0-0.7 0.4-0.6 0.8 0 0.1 0.1 0.2 0.1 0.3 0.1 0.2 0 0.4-0.1 0.5-0.1 0.1-0.4 0.1-0.5-0.1-0.2-0.2-0.3-0.4-0.4-0.7-0.1-0.2-0.3-0.4-0.5-0.5-0.2-0.1-0.4-0.1-0.6 0-0.1 0-0.1 0.1-0.2 0.1-0.2 0.2-0.5 0.3-0.8 0.2-0.1 0-0.3 0-0.3 0.1-0.1 0.1-0.1 0.3 0 0.4 0.2 0.2 0.1 0.4 0.1 0.7 0 0.4-0.3 0.6-0.7 0.4-0.1-0.1-0.2-0.1-0.3-0.2-0.1 0-0.1-0.1-0.1-0.2-0.1-0.1-0.1-0.3-0.2-0.5-0.2 0.1-0.4 0.1-0.6 0.2-0.1 0-0.2 0.1-0.3 0.1-0.3 0-0.4 0-0.5-0.3-0.1-0.3-0.3-0.3-0.5-0.4-0.4-0.1-0.9-0.1-1.3-0.3h-0.1c-0.4-0.3-0.8-0.3-1.3-0.3-0.3 0-0.6 0.1-0.9 0.1-0.3 0-0.5 0.1-0.7 0.3-0.1 0.1-0.2 0.2-0.3 0.2-0.1-0.1-0.1-0.2-0.2-0.3v-0.1c0-0.1-0.1-0.2-0.2-0.1-0.2 0.1-0.4-0.1-0.6-0.2-0.1-0.1-0.3-0.3-0.3-0.5-0.1-0.1-0.2-0.2-0.3-0.2-0.2 0-0.5-0.1-0.7-0.1-0.1 0-0.2 0-0.2-0.1-0.1-0.1-0.2-0.1-0.4-0.1-0.1 0-0.1-0.1-0.2-0.1 0.2 0.2 0.3 0.4 0.4 0.6 0 0.1 0.1 0.1 0.1 0.2 0.1 0.2 0 0.3-0.3 0.3-0.2 0-0.2 0-0.3 0.1 0 0.2 0 0.3 0 0.5 0 0.1 0 0.2-0.2 0.3 0 0-0.1 0-0.1 0.1-0.1 0.1-0.1 0.2 0 0.3 0.3 0.2 0.5 0.3 0.8 0.4 0.3 0 0.3 0.2 0.4 0.4 0.1 0.2 0 0.3-0.1 0.5-0.2 0.2-0.4 0.4-0.6 0.6-0.3 0.1-0.5 0.4-0.8 0.4-0.2 0-0.4-0.1-0.5-0.3-0.1-0.5-0.1-0.9 0.1-1.4 0-0.1 0.1-0.2 0-0.3-0.9 0-0.9-0.2-0.9-0.3 0-0.2 0.1-0.3 0.1-0.5 0.1-0.2 0-0.3-0.3-0.4-0.1 0-0.2 0-0.3 0-0.1 0-0.1-0.1-0.3-0.1 0.2-0.1 0.3-0.1 0.5-0.2-0.1-0.4-0.2-0.7-0.5-0.9-0.1-0.1-0.2-0.2-0.2-0.4 0-0.3-0.2-0.5-0.3-0.7-0.2-0.3-0.6-0.4-0.9-0.4-0.3-0.1-0.5-0.1-0.8-0.2-0.3-0.1-0.6-0.4-0.9-0.5-0.1-0.1-0.2-0.2-0.4-0.3-0.4-0.2-0.7-0.5-1-0.8-0.2-0.1-0.3-0.3-0.5-0.4-0.2-0.2-0.3-0.4-0.5-0.5-0.2-0.2-0.4-0.4-0.7-0.6-0.3-0.2-0.5-0.5-0.8-0.8-0.2-0.3-0.5-0.5-0.8-0.7-0.1 0-0.2 0-0.3 0-0.1 0-0.2 0.1-0.3 0.1-0.3 0.1-0.5 0.3-0.8 0.4 0.1-0.1 0.1-0.1 0-0.3-0.1-0.1-0.2-0.2-0.3-0.2-0.2 0-0.4 0-0.6 0-0.4 0-0.8 0.1-1.2 0.1-0.3 0-0.7 0.1-1 0.2 0.1 0.2 0.1 0.3 0.2 0.5-0.2 0.1-0.4 0.1-0.6 0.1-0.1 0-0.3 0.1-0.4 0.2-0.1 0-0.1 0.1-0.2 0-0.2-0.1-0.4 0-0.6 0.1h-0.1c0 0 0-0.1 0.1-0.1 0.1-0.1 0.2-0.2 0.3-0.3 0.1-0.1 0.2-0.1 0.4-0.2-0.1-0.1-0.1-0.2-0.1-0.2-0.1-0.1-0.2-0.1-0.3 0-0.1 0.1-0.2 0.2-0.3 0.3-0.1 0.1-0.2 0.1-0.3 0-0.1-0.1-0.1-0.2 0-0.3 0-0.1 0.1-0.2 0.2-0.3 0.1-0.1 0.1-0.2 0.2-0.3-0.2-0.2-0.3-0.4-0.5-0.5-0.3-0.2-0.6-0.5-0.8-0.8-0.2-0.4-0.5-0.7-0.9-0.9-0.1-0.1-0.2-0.2-0.3-0.3-0.1-0.1-0.1-0.1-0.2-0.2-0.3 0.1-0.5 0.3-0.8 0.4-0.1 0-0.1 0.1-0.2 0.2-0.1 0.2-0.3 0.2-0.5 0.2-0.1 0-0.2-0.1-0.1-0.2 0.1-0.2 0.2-0.4 0.5-0.3 0 0 0.1 0 0.1-0.1 0.2-0.2 0.4-0.5 0.7-0.7-0.1-0.3-0.3-0.5-0.4-0.7-0.1-0.1-0.1-0.2-0.1-0.4 0-0.1 0-0.1-0.1-0.2 0 0-0.1 0-0.2 0.1-0.1 0.1-0.3 0.2-0.5 0 0-0.1 0-0.2 0.1-0.3l0.1-0.1c0.3-0.1 0.3-0.4 0.3-0.7v-0.1c-0.1-0.2-0.1-0.3 0.1-0.5 0.3-0.2 0.6-0.6 0.7-0.9 0.1-0.2 0.3-0.3 0.5-0.5 0.2-0.2 0.4-0.4 0.5-0.7h0.1c0.4 0.1 0.5-0.2 0.7-0.5 0-0.1 0-0.2 0.1-0.2 0.2-0.2 0.2-0.4 0.1-0.7 0-0.1-0.1-0.3-0.1-0.4 0-0.1 0-0.1-0.1-0.2-0.3-0.2-0.3-0.4 0-0.6 0.2-0.1 0.2-0.3 0.3-0.4 0.1-0.2 0.1-0.4 0.1-0.7-0.1-0.3-0.1-0.7-0.2-1-0.1-0.4-0.2-0.9-0.3-1.3 0-0.1 0-0.1 0-0.2 0-0.3 0-0.5-0.1-0.8-0.1-0.1-0.1-0.3-0.1-0.4-0.1-0.3-0.2-0.5-0.5-0.6-0.3-0.2-0.7-0.3-1-0.5-0.1-0.1-0.2 0-0.3 0.1-0.1 0.2-0.3 0.4-0.4 0.6-0.1 0.1-0.2 0.3-0.3 0.5-0.2 0.2-0.6 0.4-0.9 0.1-0.1-0.2-0.2-0.3 0-0.5 0.2-0.3 0.4-0.6 0.7-0.8 0.1-0.1 0.2-0.3 0.3-0.4 0.1-0.2 0.1-0.4 0.1-0.6-0.1-0.4-0.2-0.8-0.2-1.3 0-0.5 0-0.9 0.1-1.4 0.1-0.2 0.1-0.5 0.2-0.7 0-0.1 0.1-0.3 0.2-0.4 0.2-0.2 0.4-0.4 0.5-0.7 0.1-0.3 0.3-0.6 0.3-0.9 0-0.1 0.1-0.2 0.1-0.3 0-0.1 0.1-0.3 0.1-0.4-0.1-0.3 0-0.5 0.1-0.7 0.1-0.2 0.2-0.5 0.3-0.7 0.2-0.4 0.2-0.9 0.6-1.3 0.1-0.2 0.2-0.4 0.3-0.6 0.1-0.4 0.3-0.7 0.5-1 0.1-0.1 0.1-0.1 0.1-0.2 0.1-0.3 0.3-0.6 0.5-0.9 0.2-0.3 0.2-0.6 0.3-0.9 0-0.1 0-0.2 0.1-0.3 0.3-0.3 0.2-0.7 0.1-1.1-0.2-0.5-0.3-1-0.2-1.5 0-0.1 0-0.2 0.1-0.2 0.1-0.2 0.1-0.3 0.2-0.5v-0.1c0.2-0.2 0.4-0.5 0.7-0.6 0.4-0.2 0.8-0.3 1.3-0.4 0.4 0 0.8-0.2 1.1-0.6 0-0.1 0.1-0.1 0.2-0.2l0.1-0.1c0.1-0.2 0.2-0.3 0.3-0.4 0.2-0.2 0.4-0.5 0.6-0.7 0.2-0.2 0.4-0.5 0.7-0.8l0.1-0.1c0.2-0.2 0.4-0.4 0.6-0.5 0.2-0.2 0.4-0.4 0.6-0.6 0.2-0.2 0.3-0.4 0.5-0.6 0.2-0.1 0.4-0.3 0.6-0.5 0.2-0.2 0.4-0.4 0.5-0.5 0.2-0.2 0.5-0.4 0.7-0.5 0.2-0.1 0.4-0.2 0.5-0.5 0.1-0.3 0.2-0.5 0.3-0.8 0-0.2 0.1-0.4 0.2-0.6 0.1 0 0.2 0 0.4-0.1-0.1-0.1-0.2-0.1-0.2-0.2 0-0.1 0.1-0.2 0.1-0.2 0-0.1 0.1-0.2 0.1-0.3 0 0 0.1 0 0.1-0.1 0 0 0.1 0 0.1-0.1-0.2 0.1-0.3 0-0.4-0.1 0.1 0.1 0.2 0.1 0.4 0.2 0 0 0.1 0 0.1-0.1 0-0.1 0-0.2 0-0.2 0 0-0.1 0-0.2 0-0.1 0-0.2 0.1-0.3 0.1zM54 70.5c0-0.1-0.1-0.1-0.1-0.2-0.1-0.2 0-0.3 0.1-0.4 0.1-0.1 0.2-0.1 0.4-0.1 0.2 0.1 0.3 0.2 0.3 0.4 0 0.1 0 0.3 0 0.4 0.1 0.4 0.1 0.4 0.5 0.4 0.2 0 0.4 0 0.6 0 0.4-0.1 0.8-0.3 1.2-0.4 0.4-0.1 0.8-0.2 1.2-0.3 0.1 0 0.2 0 0.4 0 0.4 0.1 0.7 0 1-0.2 0.1-0.1 0.3-0.1 0.4-0.2 0.2-0.1 0.4-0.1 0.6-0.2 0.5-0.3 1-0.5 1.4-0.8 0.3-0.2 0.6-0.4 0.9-0.6 0.3-0.2 0.6-0.4 0.9-0.6 0.2-0.1 0.5-0.3 0.7-0.5 0.4-0.3 0.7-0.6 1.1-0.8 0.2-0.1 0.3-0.2 0.4-0.3 0.2-0.1 0.3-0.3 0.5-0.4 0.1-0.1 0.2-0.2 0.4-0.3 0.1-0.1 0.1-0.1 0.1-0.2 0.3-0.2 0.6-0.6 0.8-0.9 0.2-0.2 0.4-0.4 0.6-0.7 0.3-0.3 0.5-0.7 0.8-1.1 0.2-0.2 0.4-0.5 0.5-0.7 0.2-0.4 0.4-0.8 0.7-1.1v-0.1c0.2-0.4 0.4-0.8 0.6-1.2 0.3-0.5 0.5-1.1 0.8-1.6 0.1-0.2 0.2-0.4 0.2-0.6 0.2-0.4 0.3-0.8 0.4-1.2 0-0.1 0-0.1 0.1-0.2 0.3-0.6 0.5-1.2 0.6-1.9 0.1-0.4 0.2-0.8 0.3-1.2 0.2-0.6 0.2-1.1 0.3-1.7 0.1-0.4 0.1-0.9 0.1-1.3 0.1-0.6 0.1-1.3 0-1.9 0-0.5-0.1-1.1-0.1-1.6 0-0.5-0.1-0.9-0.2-1.4-0.1-0.5-0.2-0.9-0.3-1.4-0.2-0.4-0.3-0.8-0.4-1.3-0.1-0.4-0.3-0.7-0.3-1.1 0-0.3-0.1-0.6-0.4-0.7-0.3-0.1-0.5-0.2-0.8-0.4-0.6-0.4-0.9-0.9-0.8-1.5 0-0.3 0.1-0.7 0.2-1 0.1-0.3 0.2-0.6 0-0.8-0.1-0.3-0.3-0.5-0.4-0.7-0.2-0.3-0.3-0.5-0.5-0.7-0.2-0.4-0.4-0.8-0.7-1.1-0.4-0.5-0.7-1-1.2-1.4l-0.1-0.1c-0.3-0.4-0.6-0.8-1-1.1-0.2-0.2-0.4-0.4-0.6-0.5-0.1-0.1-0.2-0.2-0.4-0.3-0.3-0.2-0.6-0.3-0.8-0.5-0.3-0.3-0.7-0.5-1-0.7 0 0-0.1 0-0.1-0.1-0.4-0.2-0.7-0.3-1.1-0.5-0.4-0.2-0.8-0.3-1.2-0.3-0.1 0-0.1 0-0.2 0-0.1-0.1-0.3-0.1-0.4-0.1-0.1 0-0.1 0-0.2 0-0.2-0.1-0.5 0-0.7 0-0.4 0.1-0.8 0.1-1.2-0.1-0.5-0.2-0.9-0.4-1.3-0.6-0.3-0.2-0.5-0.4-0.8-0.6-0.6-0.5-1.2-1.1-1.9-1.6 0.1-0.5-0.1-0.6-0.5-0.6-0.2 0-0.4 0.1-0.6 0.2-0.1 0.1-0.1 0.1-0.2 0.2-0.3 0.2-0.5 0.5-0.8 0.7-0.5 0.3-0.7 0.2-1.1 0-0.1-0.1-0.2-0.2-0.3-0.3-0.2-0.2-0.4-0.5-0.5-0.7-0.2-0.4-0.6-0.4-1-0.4-0.2 0-0.5 0.1-0.7 0.1-0.4 0-0.8 0.2-1 0.5-0.2 0.3-0.4 0.6-0.7 0.9-0.1 0.1-0.3 0.2-0.4 0.4-0.2 0.2-0.4 0.2-0.6 0-0.1-0.1-0.2-0.1-0.3-0.2-0.1 0.1-0.2 0.2-0.2 0.3-0.1 0.2-0.2 0.4-0.3 0.7-0.1 0.3-0.3 0.6-0.5 0.8-0.1 0.1-0.1 0.1-0.2 0.2-0.1 0.2-0.4 0.3-0.6 0.3-0.2 0.2-0.4 0.5-0.5 0.7-0.1 0.2-0.2 0.4-0.3 0.7-0.1 0.1-0.1 0.3-0.2 0.4-0.1 0.2-0.1 0.3-0.1 0.5 0.1 0.3-0.1 0.4-0.4 0.5-0.2 0-0.2 0-0.3 0.2 0 0.3 0.1 0.5 0.2 0.8 0.1 0.1 0.2 0.3 0.2 0.4 0 0.2 0.1 0.3 0.3 0.4 0.1 0.1 0.2 0.2 0.3 0.2 0.1 0 0.1 0.1 0.2 0.1 0.1 0.1 0.2 0 0.2-0.1 0.1-0.3 0.2-0.6 0.2-0.9 0.1-0.4 0.1-0.7 0.2-1.1 0.1-0.2 0.2-0.3 0.3-0.4 0 0 0.1 0 0.2 0v0.1c-0.1 0.5-0.3 1.1-0.4 1.6-0.1 0.2-0.1 0.4-0.2 0.6 0 0.1-0.1 0.2-0.2 0.2-0.2 0.1-0.4 0.2-0.6 0.2-0.1 0-0.2 0-0.3 0-0.2-0.1-0.4-0.3-0.6-0.4-0.1-0.1-0.2-0.2-0.3-0.3-0.1-0.2-0.2-0.4-0.3-0.6-0.1-0.2-0.2-0.3-0.4-0.4-0.1-0.1-0.2-0.1-0.3-0.2-0.2-0.2-0.4-0.3-0.7-0.3-0.1 0-0.3 0-0.4 0-0.1 0-0.3 0.1-0.4 0.2-0.2 0.1-0.3 0.1-0.5 0-0.5-0.2-1-0.1-1.5 0.1-0.2 0.1-0.4 0.2-0.6 0.2-0.5 0-0.9 0-1.4 0-0.5 0-0.9-0.1-1.4-0.2-0.2 0-0.4 0-0.6 0-0.4 0.1-0.5 0.4-0.4 0.8 0.1 0.4 0.2 0.9 0.2 1.3 0 0.3 0 0.6 0 0.9 0 0.2 0 0.3 0 0.5 0 0.3-0.1 0.6-0.1 0.9-0.1 0.6-0.4 1.1-0.8 1.5-0.3 0.3-0.7 0.6-1.1 0.7-0.2 0.1-0.4 0.2-0.7 0.3-0.5 0.2-0.9 0.6-1.2 1.1-0.1 0.2-0.2 0.4-0.3 0.6-0.2 0.3-0.3 0.5-0.5 0.8-0.1 0.2-0.3 0.4-0.4 0.6-0.1 0.2-0.3 0.3-0.3 0.5-0.2 0.4-0.3 0.8-0.5 1.2-0.1 0.2-0.1 0.5-0.2 0.7-0.2 0.4-0.2 0.8-0.2 1.3 0 0.1 0 0.2 0 0.4 0 0.5-0.1 1.1-0.1 1.6 0 0.5 0 1 0.1 1.5 0 0.2 0 0.5 0 0.7 0 0.4 0.1 0.9 0.1 1.3 0 0.4 0 0.9 0.2 1.3v0.1c0.1 0.4 0.1 0.8 0.2 1.2 0 0.1 0 0.2 0.1 0.3 0.2 0.6 0.3 1.1 0.5 1.7 0.1 0.4 0.3 0.8 0.4 1.2 0.1 0.4 0.5 0.8 0.6 1.3v0c0.3 0.6 0.6 1.2 1 1.8 0.1 0.2 0.3 0.4 0.4 0.6 0.2 0.3 0.3 0.6 0.5 0.8 0.1 0.2 0.3 0.4 0.4 0.5 0.1 0.2 0.2 0.4 0.4 0.6 0.2 0.2 0.4 0.5 0.6 0.7 0.3 0.5 0.7 0.9 1.1 1.2 0.2 0.2 0.4 0.3 0.6 0.5 0.1 0.1 0.2 0.1 0.2 0.2 0.1 0.1 0.2 0.2 0.4 0.3 0.8 0.4 1.4 1 2.1 1.6 0.3 0.3 0.6 0.6 1 0.8 0.4 0.3 0.7 0.6 1.2 0.7 0 0 0.1 0 0.1 0.1 0.2 0.2 0.5 0.3 0.7 0.4 0.4 0.2 0.9 0.4 1.3 0.6 0.1 0.1 0.3 0.1 0.4 0.2 0.3 0.1 0.6 0.2 0.9 0.3 0.3 0.1 0.5 0.2 0.8 0.2h0.1c0.2 0.1 0.3 0.1 0.5 0 0.1 0 0.2 0 0.2 0.1 0 0.1 0.1 0.1 0.2 0.1 0.1 0 0.2 0 0.4 0 0.1-0.1 0.1-0.2 0.2-0.4 0.1 0.1 0.2 0.1 0.2 0.1 0.1 0.2 0.3 0.2 0.5 0.2h0.1c0.2 0 0.3 0 0.4-0.1 0-0.1 0.2-0.1 0.3-0.1 0.3 0.1 0.6 0.1 0.9 0.2 0.2 0.1 0.5 0.1 0.6-0.1 0.1-0.1 0.2-0.2 0.4-0.1 0.2 0.1 0.3 0.1 0.5 0 0.1 0 0.2 0 0.2 0 0.3 0.1 0.5 0.1 0.8 0.2 0.4 0.1 0.4 0.1 0.7-0.2 0.1-0.1 0.3-0.1 0.4 0 0.1 0.2 0.1 0.3 0.1 0.5 0.1 0 0.1 0 0.2-0.1 0-0.2 0.1-0.2 0.3-0.3 0.1 0.1 0.1 0.1 0.2 0.1 0.2 0.2 0.3 0.2 0.4-0.1 0-0.1 0-0.2 0.1-0.2 0.1 0 0.2 0.1 0.2 0.1 0.1 0.2 0.3 0.3 0.4 0.5 0.2 0.2 0.5 0.2 0.6 0 0.1-0.1 0.2-0.1 0.3-0.1 0-0.1 0-0.2 0-0.3 0.3 0.2 0.2 0.2 0.1 0.2zM37.4 23.8c0.3 0.1 0.5 0.1 0.6-0.1-0.2 0.1-0.4-0.1-0.6 0.1z" fill="#0d590f" fill-rule="nonzero" stroke="none" stroke-width="1" stroke-linecap="butt" stroke-linejoin="miter" stroke-miterlimit="10" stroke-dasharray="" stroke-dashoffset="0" font-family="none" font-weight="none" font-size="none" text-anchor="none" style="mix-blend-mode: normal" data-fill-palette-color="tertiary"></path></g><g transform="matrix(1,0,0,1,132.5045568106918,90)"><svg viewBox="0 0 54.990886378616395 180" height="180" width="54.990886378616395"><g><svg viewBox="0 0 54.990886378616395 180" height="180" width="54.990886378616395"><g><svg viewBox="0 0 89.32144186046511 292.3731656948835" height="180" width="54.990886378616395"><g transform="matrix(1,0,0,1,0,81.30464521216744)"><svg viewBox="0 0 89.32144186046511 211.06852048271602" height="211.06852048271602" width="89.32144186046511"><g id="textblocktransform"><svg viewBox="0 0 89.32144186046511 211.06852048271602" height="211.06852048271602" width="89.32144186046511" id="textblock"><g><svg viewBox="0 0 89.32144186046511 178.88760000000002" height="178.88760000000002" width="89.32144186046511"><g transform="matrix(1,0,0,1,0,0)"><svg width="89.32144186046511" viewBox="0.1 -35.05 18.25 36.55" height="178.88760000000002" data-palette-color="#af2323"><path d="M0.5-12.05L6.4-11.45Q6.2-10.45 6.2-8.88 6.2-7.3 6.88-5.95 7.55-4.6 8.65-4.6L8.65-4.6Q10.15-4.6 10.83-6.93 11.5-9.25 11.5-12L11.5-12Q11.5-23.5 10.6-35.05L10.6-35.05 17.65-34.45Q18.35-25.45 18.35-12L18.35-12Q18.35-7.5 16.4-3.4L16.4-3.4Q15.4-1.25 13.58 0.13 11.75 1.5 9.4 1.5L9.4 1.5Q5.2 1.5 2.65-1.43 0.1-4.35 0.1-8.7L0.1-8.7Q0.1-10.2 0.5-12.05L0.5-12.05Z" opacity="1" transform="matrix(1,0,0,1,0,0)" fill="#af2323" class="wordmark-text-0" data-fill-palette-color="primary" id="text-0"></path></svg></g></svg></g><g transform="matrix(1,0,0,1,0,204.99159414240003)"><svg viewBox="0 0 89.32144186046511 6.076926340315996" height="6.076926340315996" width="89.32144186046511"><g transform="matrix(1,0,0,1,0,0)"><svg width="89.32144186046511" viewBox="0.75 -33.7 523.93 35.650000000000006" height="6.076926340315996" data-palette-color="#262f59"><path d="M11.5-7.3L9.55 0 0.75-2.4 2.3-8.2 2.3-26 0.75-26.4 2.7-33.7 11.5-31.3 9.85-25.1 9.85-7.75 11.5-7.3ZM23.75-7.3L21.8 0 13-2.4 14.55-8.2 14.55-16.5 13-16.9 14.95-24.2 22.75-22.05 23.55-25 34.5-22 32.85-15.8 32.85-7.75 34.5-7.3 32.55 0 23.75-2.4 25.3-8.2 25.3-16.7 22.6-17.45 22.1-15.6 22.1-7.75 23.75-7.3ZM54.99-7.3L53.04 0 44.24-2.4 45.79-8.2 45.79-21.15 43.49-21.35 44.19-28.85 45.79-28.7 45.79-31.7 53.34-31.7 53.34-28 55.79-27.75 55.09-20.25 53.34-20.4 53.34-8.7 49.84-8.7 54.99-7.3ZM68.79-7.15L66.84 0.15 57.29-2.45 59.24-9.75 59.99-9.55 59.99-28.95 67.54-32 67.54-21.25 68.54-25 78.44-22.3 77.69-19.45 77.69-3.05 70.14 0 70.14-16.75 67.54-17.45 67.54-7.5 68.79-7.15ZM96.04-5.9L94.09 1.4 79.59-2.55 80.44-5.75 80.44-19.6 84.79-19.6 83.89-20.35 88.74-26.15 98.04-18.25 93.19-12.5 93.99-9.6 88.24-8 96.04-5.9ZM90.94-14.35L87.99-16.85 87.99-13.55 90.94-14.35ZM125.78-0.8L125.03 1.95 107.03-3 108.68-9.2 108.68-17.05 107.03-17.5 108.98-24.8 117.33-22.5 116.23-18.45 116.23-8.3 118.98-7.55 119.43-9.2 119.43-17.05 117.78-17.5 119.73-24.8 128.08-22.5 126.98-18.45 126.98-8.3 130.18-7.45 130.18-14.55 128.78-22.4 136.23-23.8 137.73-14.95 137.73-5.35 137.73-5.35 135.78 1.95 125.78-0.8ZM151.03 0.75L139.18-2.45 139.73-4.5 139.73-19.6 142.03-19.6 143.83-26.35 158.88-22.2 157.73-17.95 157.73-4.3 152.38-4.3 151.03 0.75ZM147.28-17.55L147.28-8.1 150.18-7.3 150.18-16.75 147.28-17.55ZM171.13-7.3L169.18 0 160.38-2.4 161.93-8.2 161.93-16.5 160.38-16.9 162.33-24.2 169.68-22.2 170.23-24.2 176.23-22.55 174.28-15.25 169.48-16.55 169.48-7.75 171.13-7.3ZM187.98-7.3L186.03 0 177.23-2.4 178.78-8.2 178.78-31.1 186.33-32.95 186.33-7.75 187.98-7.3ZM202.37-4.3L201.07 0.7 189.22-2.5 189.72-4.4 189.72-19.6 196.52-19.6 192.12-30.5 199.12-33.35 208.22-10.9 208.22-10.9 208.22-4.3 202.37-4.3ZM197.27-17.8L197.27-8.15 200.67-7.25 200.67-9.4 197.27-17.8ZM229.02 0.75L217.17-2.45 217.72-4.5 217.72-19.6 220.02-19.6 221.82-26.35 236.87-22.2 235.72-17.95 235.72-4.3 230.37-4.3 229.02 0.75ZM225.27-17.55L225.27-8.1 228.17-7.3 228.17-16.75 225.27-17.55ZM246.87-12.05L246.87-0.1 239.32-2.2 239.32-23.1 243.42-23.1 238.37-23.6 239.07-31.1 253.02-29.8 252.32-22.25 246.87-22.75 246.87-17.5 250.57-17.5 249.62-12.05 246.87-12.05ZM272.76-7.3L270.81 0 262.01-2.4 263.56-8.2 263.56-26 262.01-26.4 263.96-33.7 272.76-31.3 271.11-25.1 271.11-7.75 272.76-7.3ZM288.81 0.95L288.81 0.95 274.26-3 276.11-10.2 277.36-9.85 277.36-24.5 283.31-24.5 276.31-26.4 278.31-33.7 297.31-28.5 295.36-21.2 284.91-24.05 284.91-8.55 281.86-8.55 288.21-6.7 294.71-8.5 296.71-1.2 288.81 0.95 288.81 0.95ZM313.81-5.8L306.86 0.1 299.06-2 302.66-8.85 311.66-6.4 307.51-12.3 303.56-9.55 298.31-17.1 304.11-22 304.11-22 309.76-26.75 317.46-24.7 313.81-17.85 305.41-20.15 309.11-14.85 313.01-17.6 316.26-12.95 315.76-7.45 313.81-5.8 313.81-5.8ZM344.25-4.4L336.7 0 326.45-4.8 327.5-7.1 327.5-26 325.95-26.4 327.9-33.7 336.7-31.3 335.05-25.1 335.05-16.15 337.75-22 346-18.1 346-18.1 347.6-10.8 346.15-5.5 344.25-4.4ZM335.05-14.95L335.05-9.15 340.85-6.4 339.45-12.85 335.05-14.95ZM365.55-5.9L363.6 1.4 349.1-2.55 349.95-5.75 349.95-19.6 354.3-19.6 353.4-20.35 358.25-26.15 367.55-18.25 362.7-12.5 363.5-9.6 357.75-8 365.55-5.9ZM360.45-14.35L357.5-16.85 357.5-13.55 360.45-14.35ZM388.04-7.3L386.09 0 377.29-2.4 378.84-8.2 378.84-21.15 376.54-21.35 377.24-28.85 378.84-28.7 378.84-31.7 386.39-31.7 386.39-28 388.84-27.75 388.14-20.25 386.39-20.4 386.39-8.7 382.89-8.7 388.04-7.3ZM401.84-7.15L399.89 0.15 390.34-2.45 392.29-9.75 393.04-9.55 393.04-28.95 400.59-32 400.59-21.25 401.59-25 411.49-22.3 410.74-19.45 410.74-3.05 403.19 0 403.19-16.75 400.59-17.45 400.59-7.5 401.84-7.15ZM429.09-5.9L427.14 1.4 412.64-2.55 413.49-5.75 413.49-19.6 417.84-19.6 416.94-20.35 421.79-26.15 431.09-18.25 426.24-12.5 427.04-9.6 421.29-8 429.09-5.9ZM423.99-14.35L421.04-16.85 421.04-13.55 423.99-14.35ZM450.83-7.35L448.88-0.05 440.08-2.45 441.63-8.25 441.63-25 445.78-25 440.58-26.4 442.58-33.7 462.08-28.35 460.43-22.35 460.43-7.8 462.08-7.35 460.13-0.05 451.33-2.45 452.88-8.25 452.88-16.3 451.88-12.6 449.18-13.35 449.18-7.8 450.83-7.35ZM449.18-24.05L449.18-18.95 452.88-17.95 452.88-23.05 449.18-24.05ZM474.33-7.3L472.38 0 463.58-2.4 465.13-8.2 465.13-16.5 463.58-16.9 465.53-24.2 472.88-22.2 473.43-24.2 479.43-22.55 477.48-15.25 472.68-16.55 472.68-7.75 474.33-7.3ZM490.83-2.15L490.23 0.15 480.68-2.45 481.23-4.5 481.23-19.6 485.18-19.6 486.68-25.5 501.53-21.6 499.63-14.25 498.63-14.5 498.63-7.85 501.23-7.15 499.28 0.15 490.83-2.15ZM488.78-17.15L488.78-8.1 491.08-7.45 491.08-7.5 491.08-16.55 488.78-17.15ZM521.33-4.4L513.78 0 503.53-4.8 504.58-7.1 504.58-26 503.03-26.4 504.98-33.7 513.78-31.3 512.13-25.1 512.13-16.15 514.83-22 523.08-18.1 523.08-18.1 524.68-10.8 523.23-5.5 521.33-4.4ZM512.13-14.95L512.13-9.15 517.93-6.4 516.53-12.85 512.13-14.95Z" opacity="1" transform="matrix(1,0,0,1,0,0)" fill="#262f59" class="slogan-text-1" data-fill-palette-color="secondary" id="text-1"></path></svg></g></svg></g></svg></g></svg></g><g transform="matrix(1,0,0,1,17.060395395348838,0)"><svg viewBox="0 0 55.20065106976744 55.20065106976744" height="55.20065106976744" width="55.20065106976744"><g><svg xmlns="http://www.w3.org/2000/svg" xmlns:xlink="http://www.w3.org/1999/xlink" version="1.1" x="0" y="0" viewBox="8.305 8.305 83.38999999999999 83.38999999999999" enable-background="new 0 0 100 100" xml:space="preserve" height="55.20065106976744" width="55.20065106976744" class="icon-icon-0" data-fill-palette-color="accent" id="icon-0"><path fill="#3e5a78" d="M88.416 33.769A41.5 41.5 0 0 0 79.482 20.518 41.6 41.6 0 0 0 66.232 11.584C61.087 9.408 55.626 8.305 50 8.305S38.913 9.408 33.769 11.584A41.6 41.6 0 0 0 20.517 20.518 41.5 41.5 0 0 0 11.584 33.769C9.408 38.913 8.305 44.374 8.305 50S9.408 61.087 11.584 66.232A41.5 41.5 0 0 0 20.518 79.482 41.5 41.5 0 0 0 33.769 88.416C38.913 90.592 44.374 91.695 50 91.695S61.087 90.591 66.232 88.416A41.5 41.5 0 0 0 79.482 79.482 41.5 41.5 0 0 0 88.416 66.232C90.592 61.086 91.695 55.626 91.695 50S90.592 38.913 88.416 33.769M83.146 63.273L80.983 64.087A95 95 0 0 1 74.414 66.296 90 90 0 0 0 75.879 52.999H85.57A35.4 35.4 0 0 1 83.146 63.273M63.275 83.144A35.4 35.4 0 0 1 52.999 85.571V75.88A90 90 0 0 0 66.298 74.415 96 96 0 0 1 64.089 80.984zM35.911 80.983A95 95 0 0 1 33.704 74.414 90 90 0 0 0 47 75.879V85.57A35.4 35.4 0 0 1 36.725 83.143zM16.855 63.273A35.4 35.4 0 0 1 14.43 53H24.122C24.274 57.42 24.764 61.859 25.587 66.297A95 95 0 0 1 19.017 64.088zM16.855 36.726L19.017 35.911A95 95 0 0 1 25.587 33.704 90 90 0 0 0 24.122 47H14.43A35.5 35.5 0 0 1 16.855 36.726M36.726 16.855A35.5 35.5 0 0 1 47.001 14.43V24.121C42.581 24.273 38.142 24.764 33.705 25.585A95 95 0 0 1 35.912 19.015zM64.089 19.017A97 97 0 0 1 66.298 25.587 90 90 0 0 0 52.999 24.123V14.432C56.603 14.732 60.056 15.567 63.275 16.857zM52.999 30.157C57.988 30.337 62.976 30.968 67.953 32.047A85 85 0 0 1 69.843 47H52.999zM47 30.157V47H30.157A85 85 0 0 1 32.048 32.047 85 85 0 0 1 47 30.157M30.157 53H47V69.843A85 85 0 0 1 32.047 67.953 85 85 0 0 1 30.157 53M52.999 69.843V53H69.843A85 85 0 0 1 67.953 67.953 85 85 0 0 1 52.999 69.843M75.879 47A90 90 0 0 0 74.414 33.704 95 95 0 0 1 80.983 35.911L83.143 36.726A35.4 35.4 0 0 1 85.57 47zM78.682 28.748A100 100 0 0 0 72.937 27.063 100 100 0 0 0 71.251 21.317 35.9 35.9 0 0 1 78.682 28.748M28.748 21.318A99 99 0 0 0 27.065 27.064 100 100 0 0 0 21.318 28.749 35.9 35.9 0 0 1 28.748 21.318M21.317 71.251A99 99 0 0 0 27.065 72.937 100 100 0 0 0 28.748 78.683 35.9 35.9 0 0 1 21.317 71.251M71.251 78.682A99 99 0 0 0 72.937 72.937 99 99 0 0 0 78.682 71.251 35.8 35.8 0 0 1 71.251 78.682" data-fill-palette-color="accent"></path></svg></g></svg></g><g></g></svg></g></svg></g></svg></g></svg></g><defs></defs></svg><rect width="320" height="360" fill="none" stroke="none" visibility="hidden"></rect></g></svg></g></svg>